<?xml version="1.0" encoding="UTF-8"?>
<svg width="512px" height="512px" viewBox="0 0 512 512" version="1.1" xmlns="http://www.w3.org/2000/svg" xmlns:xlink="http://www.w3.org/1999/xlink">
    <title>512</title>
    <g id="512" stroke="none" stroke-width="1" fill="none" fill-rule="evenodd">
        <g id="g20" transform="translate(256.009392, 256.120457) scale(1, -1) translate(-256.009392, -256.120457) translate(3.009392, 3.120457)" fill="#0D73BA">
            <path d="M41.4934426,115.025376 C22.7019334,143.933348 10.5813587,175.251173 4.75198828,207.168897 L174.096225,376.371291 C212.880011,415.123767 272.061463,415.569846 306.32954,381.329434 C373.464798,314.248376 296.661816,244.485716 252.495099,200.359783 C231.84086,179.722218 262.814521,148.763307 283.468761,169.400872 L332.356447,218.243963 C463.517281,349.283526 274.268003,538.364638 143.117432,407.330202 L0.990607554,265.328375 C5.00856268,343.402461 45.1265361,418.518069 115.771732,464.351409 C159.497141,492.726137 208.733769,505.862396 257.226331,505.088167 C351.804787,499.44296 426.385834,426.209087 410.26783,314.653436 C406.829733,290.857427 442.272921,288.191207 445.705886,311.992344 C452.587212,359.604872 444.848928,401.592703 427.042664,436.202283 C441.323595,422.696856 454.260077,407.299438 465.446721,390.092067 C484.084285,361.430207 496.163808,330.389259 502.039362,298.748411 L332.346184,129.192231 C293.552135,90.439755 234.375815,89.993676 200.097475,124.239215 C132.967348,191.315146 209.780593,261.077806 253.942179,305.203739 C274.601549,325.841304 243.627888,356.795087 222.968517,336.16265 L174.08083,287.319559 C42.9148648,156.279996 232.164143,-32.8062432 363.324977,98.2384472 L505.990608,240.7889 C502.921978,175.953619 474.939973,113.076984 425.262038,67.2333903 L459.791821,13.8936175 L336.307693,13.8936175 C311.953651,5.43862513 286.809359,0.911179262 261.726646,0.120457332 C161.329083,-0.211709352 79.3432983,74.4783292 96.164316,190.910086 C99.6075445,214.700968 64.1694882,217.367187 60.7313912,193.576305 C53.8500657,145.979159 61.5780867,104.022093 79.3740872,69.4227667 C65.2881526,82.8000106 52.5415363,98.028226 41.4934426,115.025376" id="path22"></path>
        </g>
    </g>
</svg>